{"title":"Captive.2012.PROPER.DVDRip.XviD.AC3.HORiZON-ArtSubs","uid":8862728,"size":1572516602,"categoryP":"video","categoryS":"movies","magnet":"?xt=urn:btih:4060047b7936d78ef4e3455a072d0dceb92f1896&amp;dn=Captive.2012.PROPER.DVDRip.XviD.AC3.HORiZON-ArtSubs&amp;tr=udp%3A%2F%2Ftracker.openbittorrent.com%3A80&amp;tr=udp%3A%2F%2Fopen.demonii.com%3A1337&amp;tr=udp%3A%2F%2Ftracker.coppersurfer.tk%3A6969&amp;tr=udp%3A%2F%2Fexodus.desync.com%3A6969","seeders":2,"leechers":4,"uploader":"lletaif","files":3,"time":1377817282,"description":"Title: \nCaptive (2012)\n\nDirector:  \nBrillante Mendoza\n\nImdb: &lt;a href=&quot;\nhttp://www.imdb.com/title/tt1699745/?ref_=sr_1&quot; rel=&quot;nofollow&quot; target=&quot;_NEW&quot;&gt;\nhttp://www.imdb.com/title/tt1699745/?ref_=sr_1&lt;/a&gt;\n\nSubtitle:\nEnglish and Portuguese BR\n\nLanguage:\nTagalog and English. In original audio, not french dubbed.\n\n\nMedia Info:\n\nGeneral\nComplete name                            : Captive.2012.PROPER.DVDRip.XviD.AC3.HORiZON-ArtSubs\nFormat                                   : AVI\nFormat/Info                              : Audio Video Interleave\nFile size                                : 1.46 GiB\nDuration                                 : 2h 2mn\nOverall bit rate                         : 1 714 Kbps\nWriting application                      : FairUse Wizard - http://fairusewizard.com\nWriting library                          : The best and REALLY easy backup tool\n\nVideo\nID                                       : 0\nFormat                                   : MPEG-4 Visual\nFormat profile                           : Advanced Simple@L5\nFormat settings, BVOP                    : 1\nFormat settings, QPel                    : No\nFormat settings, GMC                     : No warppoints\nFormat settings, Matrix                  : Default (MPEG)\nMuxing mode                              : Packed bitstream\nCodec ID                                 : XVID\nCodec ID/Hint                            : XviD\nDuration                                 : 2h 2mn\nBit rate                                 : 1 512 Kbps\nWidth                                    : 688 pixels\nHeight                                   : 368 pixels\nDisplay aspect ratio                     : 1.85:1\nFrame rate                               : 23.976 fps\nColor space                              : YUV\nChroma subsampling                       : 4:2:0\nBit depth                                : 8 bits\nScan type                                : Progressive\nCompression mode                         : Lossy\nBits/(Pixel*Frame)                       : 0.249\nStream size                              : 1.29 GiB (88%)\nWriting library                          : XviD 1.2.0.dev47 (UTC 2006-11-01)\n\nAudio\nID                                       : 1\nFormat                                   : AC-3\nFormat/Info                              : Audio Coding 3\nMode extension                           : CM (complete main)\nFormat settings, Endianness              : Big\nCodec ID                                 : 2000\nDuration                                 : 2h 2mn\nBit rate mode                            : Constant\nBit rate                                 : 192 Kbps\nChannel(s)                               : 2 channels\nChannel positions                        : Front: L R\nSampling rate                            : 48.0 KHz\nBit depth                                : 16 bits\nCompression mode                         : Lossy\nStream size                              : 168 MiB (11%)\nAlignment                                : Split accross interleaves\nInterleave, duration                     : 42 ms (1.00 video frame)\nInterleave, preload duration             : 500 ms\n\n","torrent":{"xt":"urn:btih:4060047b7936d78ef4e3455a072d0dceb92f1896","amp;dn":"Captive.2012.PROPER.DVDRip.XviD.AC3.HORiZON-ArtSubs","amp;tr":["udp%3A%2F%2Ftracker.openbittorrent.com%3A80","udp%3A%2F%2Fopen.demonii.com%3A1337","udp%3A%2F%2Ftracker.coppersurfer.tk%3A6969","udp%3A%2F%2Fexodus.desync.com%3A6969"],"infoHash":"4060047b7936d78ef4e3455a072d0dceb92f1896","infoHashBuffer":{"type":"Buffer","data":[64,96,4,123,121,54,215,142,244,227,69,90,7,45,13,206,185,47,24,150]},"announce":[],"urlList":[]}}